<svg xmlns="http://www.w3.org/2000/svg" width="44.987" height="31.936" viewBox="0 0 44.987 31.936">
  <path id="delivery" d="M418.287,2059.238H402.81a5.562,5.562,0,0,1-10.987,0h-1.937a1.869,1.869,0,0,1-1.857-1.875v-23.49a1.869,1.869,0,0,1,1.857-1.876h25.551a1.868,1.868,0,0,1,1.856,1.876v1.905h7.121a.941.941,0,0,1,.238.031c2.3.2,3.457,1.4,4.677,3.463l3.559,6.094a.941.941,0,0,1,.13.476V2058.3a.933.933,0,0,1-.929.938h-2.814a5.562,5.562,0,0,1-10.987,0Zm1.778-.938a3.715,3.715,0,1,0,3.716-3.756A3.739,3.739,0,0,0,420.065,2058.3Zm-26.464,0a3.715,3.715,0,1,0,3.716-3.756A3.74,3.74,0,0,0,393.6,2058.3Zm35.672-.938h1.886v-5.618h-2.736a.933.933,0,0,1-.929-.938v-1.847a2.817,2.817,0,0,1,.77-1.939h-6.379a.921.921,0,0,1-.229-.029,2.826,2.826,0,0,1-2.574-2.824v-4.7a.933.933,0,0,1,.929-.938h6.483a3.354,3.354,0,0,0-2.578-.88h-6.623v19.709h.994a5.562,5.562,0,0,1,10.987,0Zm-26.464,0h12.627v-23.49H389.886v23.49h1.937a5.562,5.562,0,0,1,10.987,0Zm26.542-8.4v.909h1.808v-1.847h-.879A.934.934,0,0,0,429.352,2048.96Zm-8.413-4.792a.953.953,0,0,0,.947.957.946.946,0,0,1,.19.02H430.6l-2.766-4.736h-6.9Zm.093,14.132a2.766,2.766,0,0,1,2.749-2.777.938.938,0,0,1,0,1.875.9.9,0,1,0,.892.9.928.928,0,1,1,1.857,0,2.749,2.749,0,1,1-5.5,0Zm-26.464,0a2.766,2.766,0,0,1,2.749-2.777.938.938,0,0,1,0,1.875.9.9,0,1,0,.892.9.928.928,0,1,1,1.857,0,2.749,2.749,0,1,1-5.5,0Zm-1.858-20.647a.938.938,0,0,1,0-1.876h19.9a.938.938,0,0,1,0,1.876Z" transform="translate(-388.03 -2031.996)" fill="#f16d7f"/>
</svg>
